<?xml version="1.0" encoding="UTF-8" standalone="no"?>
<!-- Created with Inkscape (http://www.inkscape.org/) -->

<svg
   xmlns:dc="http://purl.org/dc/elements/1.1/"
   xmlns:cc="http://creativecommons.org/ns#"
   xmlns:rdf="http://www.w3.org/1999/02/22-rdf-syntax-ns#"
   xmlns:svg="http://www.w3.org/2000/svg"
   xmlns="http://www.w3.org/2000/svg"
   xmlns:sodipodi="http://sodipodi.sourceforge.net/DTD/sodipodi-0.dtd"
   xmlns:inkscape="http://www.inkscape.org/namespaces/inkscape"
   width="94.315414mm"
   height="123.39832mm"
   viewBox="0 0 334.18848 437.23812"
   id="svg12096"
   version="1.1"
   inkscape:version="0.91 r13725"
   sodipodi:docname="Jerry the Jinx.svg">
  <defs
     id="defs12098" />
  <sodipodi:namedview
     id="base"
     pagecolor="#ffffff"
     bordercolor="#666666"
     borderopacity="1.0"
     inkscape:pageopacity="0.0"
     inkscape:pageshadow="2"
     inkscape:zoom="0.39975835"
     inkscape:cx="874.36547"
     inkscape:cy="-135.13425"
     inkscape:document-units="px"
     inkscape:current-layer="layer1"
     showgrid="false"
     inkscape:window-width="1366"
     inkscape:window-height="705"
     inkscape:window-x="-8"
     inkscape:window-y="-8"
     inkscape:window-maximized="1"
     fit-margin-top="0"
     fit-margin-left="0"
     fit-margin-right="0"
     fit-margin-bottom="0" />
  <metadata
     id="metadata12101">
    <rdf:RDF>
      <cc:Work
         rdf:about="">
        <dc:format>image/svg+xml</dc:format>
        <dc:type
           rdf:resource="http://purl.org/dc/dcmitype/StillImage" />
        <dc:title></dc:title>
      </cc:Work>
    </rdf:RDF>
  </metadata>
  <g
     inkscape:label="Layer 1"
     inkscape:groupmode="layer"
     id="layer1"
     transform="translate(565.71714,-173.08239)">
    <path
       style="fill:#eabc6d;fill-opacity:1;fill-rule:evenodd;stroke:none;stroke-width:1px;stroke-linecap:butt;stroke-linejoin:miter;stroke-opacity:1"
       d="m -540.871,259.15176 234.24339,25.13341 33.1761,37.19745 -15.08005,73.38956 -13.06937,28.14942 -7.03736,18.09605 5.02669,34.18144 -3.01601,30.16009 -15.08005,20.10673 -32.17077,22.1174 -19.10139,18.09606 -15.08004,15.08005 -23.12274,23.12273 -23.12274,1.00534 -42.22413,-23.12274 -23.12274,-41.21879 -10.05336,-48.25615 -2.01068,-31.16543 -11.0587,11.0587 -22.1174,-5.02668 -3.01601,-28.14942 -15.08004,-47.25081 6.03201,-19.1014 13.06938,-12.06403 -7.03736,-59.31485 z"
       id="path13253"
       inkscape:connector-curvature="0" />
    <path
       style="fill:#ebe241;fill-opacity:1;fill-rule:evenodd;stroke:none;stroke-width:1px;stroke-linecap:butt;stroke-linejoin:miter;stroke-opacity:1"
       d="m -542.33761,363.70083 -7.60705,-48.77459 8.502,-45.64227 14.31914,-29.53324 31.32313,-17.00398 29.98071,-9.84441 41.16754,2.23736 12.97673,4.47474 18.3464,-20.1363 13.4242,-5.81715 10.29188,-0.89495 27.29587,-16.55651 29.08577,0.44747 22.37366,15.21409 11.63431,10.29189 4.02725,20.1363 16.10904,5.36968 18.79388,20.13629 6.26463,19.68883 -4.02726,23.71608 -9.84442,17.45146 -19.68882,6.7121 -8.94946,12.97672 -22.37367,8.94947 -34.00797,-5.81715 -19.68882,-18.34641 -3.13231,-10.73936 -17.00399,4.02726 -23.26861,-11.18683 -8.05452,8.94947 -15.66156,0.89494 -17.00399,-4.9222 1e-5,17.00399 -18.79388,2.68483 -14.31915,-12.52925 -1.34242,3.57979 2.23737,8.94946 -0.89495,5.81715 -12.97673,2.23737 10.29189,13.4242 4.02726,19.24135 -3.57979,16.10904 -12.97672,8.94946 -12.08178,0.89495 -0.44747,5.36968 -4.47474,2.68484 -12.08177,-4.02726 -10.29189,-19.24135 z"
       id="path13255"
       inkscape:connector-curvature="0"
       sodipodi:nodetypes="ccccccccccccccccccccccccccccccccccccccccccccccccc" />
    <path
       style="opacity:1;fill:#ffffff;fill-opacity:1;fill-rule:nonzero;stroke:none;stroke-width:1;stroke-miterlimit:4;stroke-dasharray:none;stroke-opacity:1"
       d="m -382.98242,368.15039 c -8.38866,1.77219 -11.48452,11.52381 -14.7821,18.32903 -4.10227,11.08376 -7.61437,22.8081 -8.01868,34.64753 1.85817,5.28151 9.11383,4.34625 13.07226,7.25586 4.4658,0.96362 5.63638,-4.929 3.37305,-7.82226 -4.31791,-7.93698 -0.0776,-18.03987 5.63477,-24.17774 2.63376,-0.99164 5.87997,-2.31229 5.47265,-5.87304 -0.18832,-6.58493 1.24038,-13.63241 -0.92773,-19.95313 -0.74777,-1.4026 -2.19062,-2.45665 -3.82422,-2.40625 z m 62.75487,14.1352 c -9.18901,8.98775 -10.96944,21.79412 -14.16019,33.70494 -1.21626,7.8057 -3.90979,15.87604 -3.06538,23.75752 2.32526,2.84754 8.14332,3.19039 10.57226,0.38672 2.28341,-10.05567 0.33065,-24.37289 11.45313,-29.6836 5.2256,-2.04593 3.09754,-9.19643 3.69921,-13.57617 -0.1502,-6.11574 -1.18302,-11.43266 -6.67401,-15.10988 l -0.88148,-0.90455 z"
       id="path13257"
       inkscape:connector-curvature="0"
       sodipodi:nodetypes="cccccccccccccccccc" />
    <path
       style="fill:#ffffff;fill-rule:evenodd;stroke:none;stroke-width:1px;stroke-linecap:butt;stroke-linejoin:miter;stroke-opacity:1"
       d="m -443.39286,452.93758 -4.69033,25.64049 42.83837,67.5408 31.58158,-24.07704 45.33989,-25.64049 -10.31873,1.56344 -16.8852,7.50454 -26.26587,0.93806 -43.15107,-42.213 z"
       id="path13264"
       inkscape:connector-curvature="0" />
    <path
       style="fill:#000000"
       d="m -335.23978,173.0864 c -3.5633,-0.0368 -6.8582,0.17866 -9.5508,0.6875 -8.1487,1.5399 -18.8488,7.40856 -24.041,13.18359 -4.4007,4.89451 -4.8013,5.10358 -9.2793,4.86719 -3.6934,-0.19497 -6.1538,0.50262 -11.6797,3.31054 -9.761,4.96 -15.6372,9.54533 -19.2774,15.04102 -1.714,2.58766 -3.2823,5.2006 -3.4843,5.80664 -0.2421,0.72646 -3.0712,0.21241 -8.3028,-1.50781 -13.0182,-4.28043 -41.6279,-6.30943 -52.707,-3.73828 -6.0546,1.40513 -18.792,5.98417 -26.7285,9.60937 -6.7126,3.06618 -10.2015,5.19753 -18,10.88801 -4.0155,2.80415 -9.0301,6.44795 -12.5039,9.91473 -4.9954,5.067 -10.912,14.70584 -15.4375,25.15429 -2.3567,5.44116 -4.9161,10.90508 -5.6914,12.14258 -1.4398,6.97699 -1.7817,10.82993 -3.1175,18.91016 -0.07,4.42642 0.4079,5.04821 0.017,9.54882 0,0 0.3224,2.59071 0.01,6.79102 0.9047,2.15139 3.7228,25.31714 3.752,30.8418 0.014,2.56211 0.9178,7.32951 2.0097,10.59375 1.5577,4.65699 1.7151,6.10687 0.7266,6.73437 -9.0898,7.16211 -2.6969,2.07654 -6.829,5.30713 -1.8306,2.2926 -6.3133,8.04795 -7.1983,10.52295 -2.0398,5.7048 -3.5868,16.28689 -3.0606,20.92969 1.7372,15.3289 3.5293,23.09079 6.0352,26.15039 0.7112,0.8683 1.2929,1.92405 1.2929,2.34765 0,0.7561 0.6547,2.34476 4.8692,11.78516 2.7381,6.1331 3.9161,11.56971 4.5019,20.78711 0.2622,4.125 0.7582,8.175 1.1016,9 0.8009,1.9242 7.9691,6.4079 12.6445,7.9082 6.8723,2.2053 18.1385,-2.09469 19.4785,-7.43359 0.3303,-1.3159 1.1452,-2.84464 1.8125,-3.39844 0.934,-0.7751 1.1197,0.30859 0.8047,4.70899 -0.7889,11.0194 4.0311,42.21614 9.6133,62.21484 2.6525,9.5031 3.7913,12.912 7.5098,22.5 0.64,1.65 3.414,7.01502 6.164,11.91992 8.5561,15.261 21.1603,26.51308 39.75,35.48828 5.1806,1.62127 3.7567,2.12194 8.8496,4.6543 0.5113,0.316 2.8295,0.74844 5.1504,0.96094 2.3209,0.2124 4.375,0.85569 4.5664,1.42969 0.1913,0.56939 1.3237,0.83121 2.5157,0.57031 1.192,-0.261 5.7486,-1.18398 10.1269,-2.05078 4.3783,-0.8669 10.1255,-2.75522 12.7715,-4.19532 4.9683,-2.7041 14.7295,-11.50974 18.5977,-16.77734 1.2117,-1.65 3.3307,-4.56186 4.709,-6.47266 4.7159,-6.5384 17.8814,-20.27527 24.4238,-25.48437 6.2713,-4.9932 11.9874,-9.10019 25.9668,-18.65039 10.2546,-7.0056 21.2732,-19.10858 25.3926,-27.89258 2.7235,-5.8076 5.6477,-19.10467 5.664,-25.75977 0.01,-3.4434 -0.7184,-10.6434 -1.6152,-16 -3.4037,-20.3312 -1.3493,-32.18533 10.0957,-58.24023 7.80716,-17.7731 10.17167,-24.48338 13.98827,-39.70508 3.71567,-14.8192 3.72981,-14.92755 3.91211,-27.96875 0.16431,-11.75576 0.25709,-12.2421 2.71289,-14.17383 1.39874,-1.10025 3.78306,-3.78823 5.29687,-5.97265 2.27185,-3.27828 3.5042,-4.08417 7.05859,-4.61719 3.79205,-0.56865 9.84666,-3.77614 14.63868,-7.75586 2.31083,-1.91911 9.45213,-14.57736 11.27734,-19.98828 6.93308,-20.55385 -1.6593,-47.5405 -18.73437,-58.83984 -5.15048,-3.40829 -15.84387,-7.97852 -18.66797,-7.97852 -1.31158,0 -1.78576,-1.26239 -2.20313,-5.86523 -0.56082,-6.18491 -3.56421,-12.66051 -8.85156,-19.08399 -3.97607,-4.83044 -16.31262,-14.63694 -22.26762,-17.70117 -6.7531,-3.47492 -19.8884,-5.84848 -30.5781,-5.95898 z m 2.7089,4.91796 c 14.1175,0.25001 31.7473,8.23807 44.0118,20.69141 9.47239,9.61833 13.9549,18.21678 11.21872,21.51367 -1.86371,2.24563 -5.5228,1.83052 -6.73633,-0.76367 -0.96125,-2.05476 -1.04912,-1.9463 -1.00781,1.25 0.0522,4.04122 1.21846,5.15578 4.20703,4.01953 4.77943,-1.81713 11.68801,0.19695 22.88867,6.67383 7.35366,4.25231 15.45453,16.97085 18.10156,28.41992 2.5784,11.15227 0.87444,24.48406 -4.43359,34.70313 -3.30673,6.36614 -5.84007,9.43462 -11.10352,13.44531 -5.18372,3.94993 -6.1179,3.47474 -3.74023,-1.90039 1.73931,-3.93192 1.9939,-6.18008 1.66797,-14.75 -0.33707,-8.86276 -0.78601,-10.9622 -3.62696,-17.00977 -1.78259,-3.79463 -3.48517,-6.65544 -3.7832,-6.35742 -0.29802,0.29802 0.37813,3.3423 1.50195,6.76563 3.13116,9.53799 3.66153,17.68994 1.56836,24.10742 -2.2407,6.86983 -9.66155,18.16869 -14.23633,21.67383 -1.94556,1.49066 -4.45019,3.57288 -5.56445,4.62695 -1.11427,1.05408 -4.76176,3.24166 -8.10544,4.86133 -10.946,5.30233 -28.4309,4.75583 -41.086,-1.28321 -12.259,-5.85004 -20.3191,-16.4654 -23.5351,-30.99609 l -1.6582,-7.5 -0.7617,5.3457 c -0.7011,4.93328 -1.0392,5.46442 -4.3965,6.86719 -4.6837,1.95697 -16.1895,1.31281 -21.4903,-1.20312 -5.2374,-2.48581 -14.1781,-10.83426 -17.289,-16.14258 -2.7199,-4.64127 -4.9702,-5.8896 -3.8164,-2.11719 0.3785,1.2375 1.848,4.64616 3.2656,7.57422 3.1593,6.52515 2.5811,7.81071 -4.9141,10.91797 -6.2269,2.58148 -13.8569,2.28517 -19.9258,-0.77344 -3.8961,-1.96367 -15.7122,-13.61047 -17.746,-17.49219 -1.7511,-3.34218 -3.4318,-3.16852 -2.6368,0.27344 0.6892,2.984 2.0539,5.97223 4.9864,10.93555 1.6694,4.15719 1.6652,4.03332 2.8164,10.41406 1.5614,9.76452 -4.0687,14.88407 -14.2305,12.94141 -5.5222,-1.05572 -9.2649,-3.15758 -15.0469,-8.44922 -4.1685,-3.81501 -3.7746,-2.07658 0.8789,3.88281 4.4524,5.70195 10.0368,8.52539 16.8555,8.52539 10.1671,0 16.375,-5.3844 16.375,-14.20313 0,-4.17637 0.2478,-4.81392 1.6348,-4.21484 0.8991,0.38831 3.5472,1.36831 5.8847,2.17969 2.3375,0.81138 4.25,1.77278 4.25,2.13476 0,0.54747 3.0747,0.39168 16.2735,-0.82421 0.4248,-0.0391 2.7991,-1.94236 5.2793,-4.22852 l 4.5097,-4.15625 2.752,2.63672 c 6.2406,5.97887 24.667,9.07704 32.0566,5.39062 l 3.0391,-1.51562 1.1523,3.65039 c 2.6807,8.49336 11.4033,18.58955 20.4649,23.68555 11.1947,6.2953 29.8178,9.08727 42.4922,6.36914 10.07467,-2.77888 6.61265,-1.92928 11.0195,-3.77344 l 2.96093,-2.18945 -0.002,7.77929 c -4.9e-4,5.2814 -0.83744,10.8302 -2.60547,17.2793 -2.7803,10.1415 -3.41631,12.6266 -3.84179,15 -0.26808,1.4954 -1.1494,3.9179 -4.18747,11.5 -0.8815,2.2 -2.0544,5.125 -2.6055,6.5 -0.5512,1.375 -1.5811,3.625 -2.289,5 -0.7079,1.375 -1.382,2.95 -1.4981,3.5 -0.3651,1.7311 -2.0053,5.8229 -4.4101,11 -4.2473,9.1437 -7.6122,20.41792 -8.8809,29.76172 -1.1594,8.5391 -1.0369,11.71048 0.8614,22.23828 0.9378,5.2014 1.3493,29.92463 0.5156,30.98633 -0.4385,0.5583 -1.0861,2.58867 -1.4395,4.51367 -1.2855,7.0035 -10.397,21.9999 -13.3673,22 -0.6875,0 -1.25,0.42121 -1.25,0.93555 0,0.5144 -1.7941,2.2019 -3.9863,3.75 -2.1922,1.54818 -4.2485,3.60195 -4.5684,4.56445 -0.3199,0.9625 -1.0379,1.75 -1.5957,1.75 -0.5579,0 -2.9359,1.575 -5.2851,3.5 -2.3492,1.925 -4.6134,3.5 -5.0313,3.5 -0.9456,0 -11.8249,7.89544 -16.5332,11.99805 -1.925,1.67727 -5.525,4.66723 -8,6.64453 -5.6634,6.49242 -11.5975,13.66593 -12.6523,14.875 -1.9349,2.191 -4.5596,5.55742 -5.832,7.48242 -10.4669,12.63233 -8.7777,13.01129 -19.2394,18.60807 -1.6747,1.6747 -5.7626,3.24162 -6.0575,2.94662 -0.2949,-0.2949 -1.0597,-0.10076 -1.7012,0.43164 -1.3118,1.0887 -13.9395,2.1555 -17.0176,1.4375 -7.7431,-1.8063 -14.3538,-4.07168 -16.3847,-5.61328 -1.3117,-0.9957 -2.7981,-1.81055 -3.3028,-1.81055 -2.4432,0 -18.3317,-11.75613 -23.3398,-17.26953 -6.554,-7.2153 -14.1873,-19.62978 -17.3613,-28.23828 -3.1646,-8.5828 -10.1114,-31.61755 -10.1114,-33.52735 0,-0.8884 -1.072,-6.75566 -2.3808,-13.03906 -3.9369,-18.8998 -4.7405,-23.85989 -5.3223,-32.83789 -0.641,-9.8925 -1.6311,-12.00033 -4.4414,-9.45703 -1.0211,0.9241 -1.8555,2.03465 -1.8555,2.46875 0,0.4342 -1.5122,2.43878 -3.3593,4.45508 -2.3814,2.5994 -4.3418,3.75128 -6.7364,3.95508 -4.6141,0.3926 -10.381,-2.0981 -13.5312,-5.8418 -2.4204,-2.8766 -2.5742,-3.60863 -2.0137,-9.64063 0.8726,-9.3907 -0.9297,-23.23587 -3.8262,-29.38867 -6.5692,-13.9551 -9.9483,-27.09627 -9.9355,-38.63867 0.014,-12.969 3.6634,-19.92636 10.6738,-20.34766 1.3941,-0.0838 2.327,-0.48984 2.0723,-0.90234 -0.8905,-1.4423 1.7621,-0.72822 6.8183,1.83398 7.3601,3.7296 14.3102,11.15335 18.3692,19.62305 1.9079,3.9811 3.4687,8.26263 3.4687,9.51563 0,2.5472 1.8053,3.10134 2.5313,0.77734 1.5232,-4.8758 1.1661,-4.65168 4.918,-3.08398 5.6031,2.3411 12.5507,-0.3712 12.5507,-4.90039 0,-2.0349 0.5884,-2.28736 6.4239,-2.75586 9.4587,-0.7592 14.8413,-4.79857 19.3789,-14.54297 2.2488,-4.82949 2.6532,-7.0345 2.6035,-14.2168 -0.07,-10.1067 -2.4461,-16.5135 -9.1914,-24.79492 -2.3829,-2.92557 -3.7429,-5.18262 -3.0235,-5.01758 0.7195,0.16503 3.2189,-0.33245 5.5547,-1.10352 3.4677,-1.14471 4.4142,-2.00561 5.1563,-4.69335 1.1009,-3.98726 -0.1182,-10.06955 -2.461,-12.28126 -1.586,-1.49731 -1.6533,-1.43541 -0.9824,0.89063 1.8841,6.53163 1.6089,10.02393 -0.9941,12.62695 -2.215,2.21494 -3.0679,2.44816 -6.7031,1.83399 -2.291,-0.38705 -6.1372,-1.54911 -8.5469,-2.58203 -5.2376,-2.2451 -5.2149,-2.24236 -5.2149,-0.4961 0,0.75972 1.5925,2.59531 3.5391,4.08008 6,4.57639 11.3361,10.78591 14.2109,16.53711 2.3521,4.7053 2.75,6.7282 2.75,14 0,6.2589 -0.4984,9.5546 -1.8906,12.5 -5.3352,11.2879 -9.7738,13.83383 -23.2519,13.3418 -5.1484,-0.18799 -9.3598,-0.055 -9.3594,0.29492 4e-4,0.3498 1.5573,1.37494 3.459,2.27734 4.0491,1.9215 4.7674,2.8334 3.9375,4.9961 -0.3806,0.9916 -1.792,1.58617 -3.752,1.57617 -5.3237,-0.0231 -7.6417,-1.03756 -7.6523,-3.35156 -0.016,-3.4262 -4.4818,-12.06453 -8.586,-16.60743 -4.8746,-5.3956 -10.8418,-9.47828 -16.2011,-11.08398 -4.8122,-1.4418 -4.6697,-1.10386 -6.2422,-14.94336 -4.3928,-38.66116 -3.0016,-61.03137 4.9902,-80.22852 3.1875,-7.65674 9.4939,-18.30099 12.8145,-21.62695 8.1442,-8.1574 24.319,-18.52005 35.7343,-22.89453 12.423,-4.76054 18.7123,-5.63702 35.3555,-4.92773 12.6311,0.53831 35.9071,3.20156 37.0098,4.23437 0.2012,0.18845 -0.1273,3.14372 -0.7304,6.56836 l -1.0978,6.22656 4.2111,6.82422 c 3.8569,6.25027 6.9833,9.27723 5.2401,5.07422 -1.3545,-3.26627 -1.7164,-15.72861 -0.578,-19.9375 1.672,-6.18233 10.5073,-18.62514 16.4393,-23.15234 6.1315,-4.67952 12.7874,-8.16016 15.6095,-8.16016 2.4139,0 2.444,0.29375 0.5684,5.5 -1.5761,4.37475 -1.9801,9.5 -0.75,9.5 0.4276,0 2.0953,-3.0375 3.707,-6.75 4.9474,-11.39625 15.1124,-19.16983 31.1699,-23.83789 2.775,-0.8067 5.8456,-1.16121 9.1035,-1.10352 z m 26.4571,39.16993 c -0.8271,-0.022 -1.4958,0.0366 -1.9317,0.1914 -2.5395,0.90204 -5.3232,3.4593 -4.7597,4.3711 0.2626,0.42485 2.0231,0.29851 3.9121,-0.28125 8.0783,-2.4793 19.2557,4.40449 23.56443,14.51367 1.22533,2.87488 2.67728,5.78535 3.22657,6.46679 1.35347,1.67911 2.77457,0.6272 2.76758,-2.04882 -0.0186,-7.28832 -5.76593,-16.01904 -12.92778,-19.64063 -3.6899,-1.8659 -10.2673,-3.47673 -13.8515,-3.57226 z m -61.3281,38.86328 c -0.5198,0.12251 -1.0224,0.99604 -1.3965,2.69922 -3.0749,14.00019 5.4684,28.84113 18.6425,32.38476 6.0874,1.63742 8.5039,1.77487 11.3672,0.64649 1.7172,-0.67675 1.5052,-0.89712 -1.5,-1.55274 -12.0316,-2.62485 -23.2396,-15.6416 -24.8847,-28.90039 -0.4467,-3.60001 -1.3621,-5.48148 -2.2285,-5.27734 z m -1.2286,72.6582 c -1.8381,0 -15.262,3.52634 -20.1582,5.29492 -8.6484,3.12398 -21.2188,9.7747 -25.3965,13.4375 l -4.3925,3.85352 1.7578,3.70703 c 1.1939,2.5159 2.4249,3.70703 3.8301,3.70703 3.3668,0 9.7234,-3.57812 17.291,-9.73242 3.9002,-3.1718 8.9969,-6.89258 11.3262,-8.26758 2.329,-1.375 6.3375,-3.87912 8.9082,-5.56641 2.5707,-1.68734 5.4632,-3.36085 6.4257,-3.71875 2.0559,-0.76447 2.3486,-2.71484 0.4082,-2.71484 z m 45.6153,13.33789 c -0.3422,-0.0124 -0.6393,0.0895 -0.9375,0.26953 -1.0087,0.6089 -1.9785,1.83135 -2.1524,2.71485 -0.4643,2.3578 9.9306,15.94873 19.4473,25.42773 6.5854,6.5593 8.8831,8.25 11.2051,8.25 1.6062,0 3.4318,-0.61775 4.0586,-1.37305 1.2918,-1.5564 0.4781,-4.60083 -1.25,-4.67382 -0.6287,-0.0267 -3.0729,-2.38921 -5.4297,-5.25 -2.3568,-2.86071 -8.7315,-9.92813 -14.166,-15.70313 -6.9631,-7.39944 -9.2927,-9.60857 -10.7754,-9.66211 z m -61.166,25.78711 c -2.1641,-0.007 -3.4546,0.92342 -6.8516,4.46875 -8.3741,8.7397 -16.0501,29.73937 -15.7578,43.10938 l 0.1328,6.05664 -7.5684,-0.043 c -5.2576,-0.0306 -8.7129,0.49897 -11.3164,1.73437 -2.0612,0.9781 -3.7464,2.06426 -3.7461,2.41406 2e-4,0.3499 5.0627,0.68891 11.25,0.75391 13.4785,0.1413 20.3928,1.46555 27.75,5.31445 7.9587,4.1636 9.1018,3.87098 4.3321,-1.10742 l -2.668,-2.7832 3.6602,-7.79883 c 4.1245,-8.7892 7.2162,-20.14474 8.5078,-31.24414 1.5442,-13.2697 -0.7087,-20.23481 -6.7344,-20.82031 -0.3534,-0.0343 -0.681,-0.0537 -0.9902,-0.0547 z m 1.0371,1.89258 0,0 c 2.8148,-0.18009 3.9471,4.50849 3.6367,14.38086 -0.257,8.1767 -0.4861,9.1145 -2.2871,9.4375 -3.7327,0.6694 -7.4902,5.39727 -9.5235,11.98047 -2.477,8.0199 -2.4763,10.85016 0,14.91796 1.0842,1.77821 1.7108,3.91571 1.3907,4.75 -0.643,1.6755 -2.4519,1.98167 -3.92,0.66407 -0.5225,-0.4689 -3.0886,-1.42836 -5.7011,-2.13086 -5.2981,-1.4248 -5.3014,-1.44329 -3.7207,-10.58399 3.1186,-18.0342 9.121,-33.88849 15.2168,-40.18359 1.9982,-2.0635 3.6249,-3.15056 4.9043,-3.23242 z m 62.6504,10.88476 c -5.3509,0.25308 -10.1113,10.45706 -15.709,32.59766 -2.8063,11.0999 -3.1233,13.1275 -3.1699,20.25 -0.047,7.1445 -0.3092,7.29135 -7.3965,4.15625 -3.151,-1.3938 -6.9973,-2.12827 -11.5039,-2.19727 -5.7372,-0.0884 -7.7738,0.38887 -13.3516,3.13477 -6.8222,3.3586 -13.6641,10.03237 -13.6641,13.32617 0,1.5227 1.0343,1.17771 6.5196,-2.17969 3.5846,-2.1941 6.9323,-3.99023 7.4414,-3.99023 0.5091,0 1.5137,-0.7875 2.2324,-1.75 1.3632,-1.8257 1.6721,-1.94086 8.2637,-3.0957 16.4591,-2.88337 27.5353,8.65632 20.7695,21.63672 -1.2247,2.3496 -2.2112,4.59463 -2.1914,4.99023 0.082,1.6334 5.089,-5.59625 6.6016,-9.53125 1.6905,-4.3976 1.5907,-4.97587 -2.5157,-14.62695 -0.7302,-1.71611 17.091,1.56246 21.7735,4.00586 1.4328,0.7476 3.2804,1.34321 4.1054,1.32422 1.8323,-0.0421 -4.8331,-5.95313 -6.7129,-5.95313 -2.0689,0 -1.517,-2.67613 2.1309,-10.32813 4.8599,-10.1942 6.9863,-25.60419 5.4512,-39.52929 -0.5533,-5.0184 -1.2839,-6.9674 -3.4707,-9.25 -1.9677,-2.0538 -3.8199,-3.0746 -5.6035,-2.99024 z m -224.2559,0.0977 c -2.2804,0 -1.8685,2.76158 0.5254,3.52148 1.1362,0.3606 3.6124,2.01288 5.5019,3.67188 l 3.4356,3.01758 -2.8574,3.64453 c -1.571,2.005 -3.3526,4.592 -3.959,5.75 -1.6483,3.1478 -0.6297,16.17585 1.625,20.78516 l 1.9023,3.88867 0.4942,-11.98243 c 0.3811,-9.2527 0.9171,-12.70037 2.3574,-15.13867 1.0259,-1.7366 2.3489,-3.1582 2.9394,-3.1582 0.5905,0 2.5663,2.5875 4.3907,5.75 4.137,7.171 5.1663,15.16954 2.7656,21.49414 -0.8886,2.341 -1.8107,7.11186 -2.0488,10.60156 -0.4548,6.6676 1.5054,11.95112 5.2421,14.13282 1.9259,1.1246 4.1465,1.31316 4.1465,0.35156 0,-0.3692 -0.7875,-1.54232 -1.75,-2.60742 -2.4764,-2.7404 -2.4104,-14.89136 0.1075,-19.72266 4.528,-8.688 -0.1451,-24.54505 -10.1758,-34.53125 -5.5959,-5.5711 -11.6229,-9.46875 -14.6426,-9.46875 z m 226.2891,2.35742 c 0.5224,0.0207 1.0327,0.50536 2,1.47266 2.2499,2.2499 3.7529,12.27534 2.8125,18.77734 -0.3098,2.1419 -0.5828,4.23008 -0.6036,4.64258 -0.021,0.4125 -0.9018,0.75 -1.9589,0.75 -1.0572,0 -3.4752,1.81244 -5.3711,4.02734 -3.692,4.3133 -5.4086,10.33027 -6.1192,21.43946 -0.4086,6.38821 -0.4189,6.40033 -5.3379,5.80273 -3.781,-0.4594 -3.6536,0.40121 -1.7871,-12.02539 2.9391,-19.5682 9.3958,-39.22882 14.3067,-43.57422 1.0049,-0.8892 1.5361,-1.3332 2.0586,-1.3125 z m -115.5664,29.95899 c -2.5088,0.0493 -3.465,0.54965 -2.875,1.5039 0.2316,0.3745 3.862,0.78526 8.0664,0.91406 9.2103,0.282 9.232,-1.1824 0.031,-2.125 -1.5762,-0.16149 -2.9279,-0.25669 -4.0527,-0.2871 -0.4218,-0.0114 -0.8114,-0.0128 -1.1699,-0.006 z m 16.9257,20.73046 c -1.5317,0.003 -3.2086,0.32615 -4.1875,0.96876 -1.3333,0.87529 -1.3333,1.0954 0,1.9707 1.8863,1.2381 2.2793,1.23985 5.4942,0.0176 1.4439,-0.549 2.3463,-1.449 2.0058,-2 -0.3957,-0.64035 -1.7809,-0.95971 -3.3125,-0.95704 z m 17.2207,7.34766 c -0.1873,-0.003 -0.4386,0.0643 -0.7597,0.1875 -1.8443,0.7077 -3.0721,3.9227 -2.0996,5.4961 0.9003,1.4567 2.1509,0.0604 2.9902,-3.3379 0.4177,-1.69095 0.4309,-2.33661 -0.1309,-2.3457 z m -11.7871,6.60547 c -1.9754,0 -3.9475,2.71098 -3.2656,4.48828 0.8715,2.271 3.3285,1.81872 4.0137,-0.73828 0.8776,-3.2746 0.782,-3.75 -0.7481,-3.75 z m -19.25,1.40234 c -6.6141,-0.0174 -14.9751,0.76232 -20.4062,2.0293 -13.5002,3.1494 -27.983,13.96752 -22.9024,17.10742 0.5846,0.3614 1.8221,0.0153 2.75,-0.76953 6.1225,-5.1792 21.8709,-12.76953 26.4942,-12.76953 0.274,0 -0.1745,2.1375 -0.9942,4.75 -2.0728,6.6063 -3.9658,14.8393 -4.7734,20.75 -0.3757,2.75 -0.9297,6.575 -1.2305,8.5 -0.8413,5.3835 -0.9175,13.60541 -0.2168,23.50391 0.5544,7.8329 1.162,10.0437 4.666,17 6.3719,12.6497 14.0629,18.98916 26.7422,22.04296 5.0187,1.2088 7.6738,1.07914 14.8907,-0.72656 7.2015,-1.8017 11.11,-5.14917 30.1093,-25.79687 3.6339,-3.9492 3.7712,-4.28292 1.5,-3.65039 -9.0208,2.51229 -14.0586,2.80446 -21.6523,1.25586 -11.7047,-2.3869 -16.901,-5.42127 -26.7129,-15.59961 -13.3246,-13.82209 -22.1887,-28.8187 -22.7773,-38.5293 -0.2428,-4.0048 1.0982,-11.35315 2.1953,-12.03125 2.2178,-1.3707 10.2515,4.66413 20.4472,15.36133 34.1005,35.778 36.6873,37.66992 51.5,37.66992 9.1502,0 15.7821,-1.46705 23.1485,-5.12305 7.3231,-3.6345 15.1041,-6.3744 18.1015,-6.375 1.5125,-3e-4 2.75,-0.51422 2.75,-1.14062 0,-1.8154 -10.7177,-0.41709 -18.0468,2.35351 -3.5496,1.3419 -8.0282,3.00109 -9.9532,3.68946 -1.925,0.68832 -7.4199,1.50334 -12.2109,1.81054 -8.0554,0.5165 -9.1312,0.35374 -14.2773,-2.16406 -5.653,-2.7657 -13.9617,-10.39938 -30.5352,-28.05078 -8.4988,-9.0516 -19.5091,-18.47323 -21.6055,-18.49023 -0.6202,-0.005 -1.6357,-0.62496 -2.2597,-1.37696 -0.9159,-1.1035 -0.4117,-1.48638 2.625,-1.98828 2.0692,-0.342 5.6481,-0.62281 7.9531,-0.63281 5.866,-0.0154 6.2444,-1.64015 0.539,-2.31445 -1.6434,-0.19425 -3.6527,-0.28912 -5.8574,-0.29493 z m 63.4571,3.75391 c -0.8517,-0.0154 -1.892,0.0481 -3.1016,0.19141 -6.8696,0.8136 -10.5947,4.38377 -7.6484,7.33007 1.191,1.191 6.0473,0.39574 9.7793,-1.60156 3.0534,-1.6341 2.1503,-2.40961 -1.2852,-1.10351 -1.487,0.5654 -3.462,1.01218 -4.3887,0.99414 -3.4509,-0.0681 2.9222,-3.9668 6.4844,-3.9668 2.2965,0 3.2182,-0.37495 2.7559,-1.12305 -0.2798,-0.45269 -1.1762,-0.69507 -2.5957,-0.7207 z m 44.9804,1.84379 c -0.4841,0 -0.3973,0.9 0.1914,2 0.5887,1.1 1.7986,2 2.6895,2 1.4297,0 1.408,-0.2347 -0.1895,-2 -0.9955,-1.1 -2.2073,-2 -2.6914,-2 z m -71.2031,1.375 c -1.0492,-0.11704 -1.8298,1.60189 -1.2266,3.17383 0.3065,0.7986 1.0206,1.45117 1.5879,1.45117 1.2848,0 1.3688,-3.67383 0.1016,-4.45703 -0.1576,-0.0974 -0.313,-0.15125 -0.4629,-0.16797 z m 64.5,6.625 c -1.5297,0 -4.1841,3.06666 -3.5469,4.09766 0.7394,1.1964 2.1447,0.32535 3.4707,-2.15235 0.6392,-1.1943 0.6684,-1.94531 0.076,-1.94531 z m 8.418,7.35937 c -1.0626,0.0336 -1.828,2.40853 -1.1387,4.20508 0.769,2.0038 2.6152,0.89915 2.6152,-1.56445 0,-1.0351 -0.452,-2.16151 -1.0058,-2.50391 -0.1607,-0.0993 -0.3189,-0.14152 -0.4707,-0.13672 z m -145.6739,62.64258 c -0.8349,-0.002 -0.3212,9.87115 0.6504,12.49805 3.7373,10.1044 12.707,19.99587 20.6973,22.82227 5.7185,2.0224 13.7959,2.04901 19.8633,0.0644 2.7159,-0.8883 4.9394,-1.83391 4.9394,-2.09961 0,-0.2657 -2.5908,-0.18175 -5.7558,0.18555 -4.6954,0.545 -6.5818,0.28347 -10.25,-1.42383 -9.1416,-4.255 -12.6508,-6.67526 -19.2246,-13.25586 -5.6396,-5.6455 -7.0157,-7.71287 -8.5,-12.76367 -0.974,-3.3146 -2.0628,-6.02665 -2.42,-6.02735 z"
       id="path12655-0"
       inkscape:connector-curvature="0"
       sodipodi:nodetypes="cscssscsssccscccccccccscscscsccsscscccccccccssscssssssssssssssccssscssssssssscsssssscccsscscscssccssssscssccccccccccccssccscssccccsccsssccccccscssssssssscccsccccsssscsccsscsscccsssscscssccccssssssssccssssscsssscscssscscccscsscsccccssccsscscsscccscccccccccscccscscsccsccccsscsscccsscsccsccsccssccsscssccccccscsccsscssssccssscsssccscscccsscsssssssssssscsccccsscssssccsssssccscsccsccsccssccccccccscccscccscccccsccscccssscccscsccs" />
  </g>
</svg>
